HIERARCHY
ROOT Hips
{
 OFFSET 0.000000 0.000000 0.000000
 CHANNELS 6 Xposition Yposition Zposition Yrotation Xrotation Zrotation
 JOINT Chest
 {
  OFFSET 0.000000 10.354800 0.006500
  CHANNELS 3 Yrotation Xrotation Zrotation
  JOINT Chest2
  {
   OFFSET 0.000000 10.435800 -0.013200
   CHANNELS 3 Yrotation Xrotation Zrotation
   JOINT Chest3
   {
    OFFSET 0.000000 10.393700 0.000000
    CHANNELS 3 Yrotation Xrotation Zrotation
    JOINT Chest4
    {
     OFFSET 0.000000 10.383100 0.000000
     CHANNELS 3 Yrotation Xrotation Zrotation
     JOINT Neck
     {
      OFFSET 0.000000 15.694000 0.000000
      CHANNELS 3 Yrotation Xrotation Zrotation
      JOINT Head
      {
       OFFSET 0.000000 9.711000 -0.028000
       CHANNELS 3 Yrotation Xrotation Zrotation
       End Site
       {
        OFFSET 0.000000 18.578700 -0.014800
       }
      }
     }
     JOINT RightCollar
     {
      OFFSET -3.157200 10.367500 0.000000
      CHANNELS 3 Yrotation Xrotation Zrotation
      JOINT RightShoulder
      {
       OFFSET -14.482500 0.000000 0.000000
       CHANNELS 3 Yrotation Xrotation Zrotation
       JOINT RightElbow
       {
        OFFSET 0.000000 -31.707800 0.000000
        CHANNELS 3 Yrotation Xrotation Zrotation
        JOINT RightWrist
        {
         OFFSET 0.000000 -25.659300 0.000000
         CHANNELS 3 Yrotation Xrotation Zrotation
         End Site
         {
          OFFSET 0.000000 -18.994300 0.000000
         }
        }
       }
      }
     }
     JOINT LeftCollar
     {
      OFFSET 3.157200 10.367500 0.000000
      CHANNELS 3 Yrotation Xrotation Zrotation
      JOINT LeftShoulder
      {
       OFFSET 14.482500 0.000000 0.000000
       CHANNELS 3 Yrotation Xrotation Zrotation
       JOINT LeftElbow
       {
        OFFSET 0.000000 -31.707800 0.000000
        CHANNELS 3 Yrotation Xrotation Zrotation
        JOINT LeftWrist
        {
         OFFSET 0.000000 -25.659300 0.000000
         CHANNELS 3 Yrotation Xrotation Zrotation
         End Site
         {
          OFFSET 0.000000 -18.994300 0.000000
         }
        }
       }
      }
     }
    }
   }
  }
 }
 JOINT RightHip
 {
  OFFSET -8.365600 -0.032100 -0.003200
  CHANNELS 3 Yrotation Xrotation Zrotation
  JOINT RightKnee
  {
   OFFSET 0.000000 -43.980000 0.003100
   CHANNELS 3 Yrotation Xrotation Zrotation
   JOINT RightAnkle
   {
    OFFSET 0.000000 -42.882800 0.005200
    CHANNELS 3 Yrotation Xrotation Zrotation
    JOINT RightToe
    {
     OFFSET 0.000000 -4.915500 10.826300
     CHANNELS 3 Yrotation Xrotation Zrotation
     End Site
     {
      OFFSET 0.000000 -1.517500 6.175900
     }
    }
   }
  }
 }
 JOINT LeftHip
 {
  OFFSET 8.365600 -0.032100 -0.003200
  CHANNELS 3 Yrotation Xrotation Zrotation
  JOINT LeftKnee
  {
   OFFSET 0.000000 -43.980000 0.003100
   CHANNELS 3 Yrotation Xrotation Zrotation
   JOINT LeftAnkle
   {
    OFFSET 0.000000 -42.882800 0.005200
    CHANNELS 3 Yrotation Xrotation Zrotation
    JOINT LeftToe
    {
     OFFSET 0.000000 -4.915500 10.826300
     CHANNELS 3 Yrotation Xrotation Zrotation
     End Site
     {
      OFFSET 0.000000 -1.517500 6.175900
     }
    }
   }
  }
 }
}
MOTION
Frames: 16
Frame Time: 0.008333
0.000000 91.618600 0.000000 0.000000 -5.767877 0.000000 0.000000 11.653817 0.000000 0.000000 -5.885947 0.000000 0.000000 -0.000000 0.000000 0.000000 -0.000000 0.000000 0.000000 12.528835 0.000000 0.000000 0.711642 0.000000 0.000000 -0.000000 0.000000 0.000000 0.000000 -90.000000 0.000000 -2.309062 0.000000 0.000000 2.309062 0.000000 0.000000 -0.000000 0.000000 0.000000 -0.000000 90.000000 0.000000 -2.309062 0.000000 0.000000 2.309062 0.000000 0.000000 8.520406 0.000000 0.000000 1.905762 0.000000 -0.000000 -4.658285 0.000000 0.000000 -0.000000 0.000000 0.000000 8.520406 0.000000 0.000000 1.905762 0.000000 -0.000000 -4.658285 0.000000 0.000000 -0.000000 0.000000
89.777337 126.605579 120.200371 176.689267 -21.624594 -3.903077 -2.414112 11.359705 5.022348 -0.220259 0.867166 0.403378 -0.372546 1.470879 0.686890 -2.231123 10.305517 4.594087 -0.287032 22.995432 -3.060052 0.390165 -0.976182 -3.243498 0.008032 7.280348 -5.190157 -1.938632 -2.466047 -1.480715 -103.528003 -55.350100 135.515728 -20.479228 -23.450169 -41.533781 0.660862 9.376815 1.153753 11.842368 2.728806 -6.320212 101.325491 -55.114149 -142.768977 25.670998 -1.961306 40.997190 8.182845 -60.454431 1.402969 -108.420575 79.405929 -102.136584 4.380764 -13.475960 -15.023683 -0.004770 -0.012149 -0.002165 -21.633837 -59.894070 15.792116 68.893174 80.839883 64.901369 -9.744253 -5.606088 -1.689932 0.001136 -0.000710 0.000516
89.777958 126.604784 120.198707 176.691055 -21.610290 -3.908558 -2.407343 11.374806 5.023785 -0.223169 0.852862 0.406671 -0.369532 1.497390 0.682997 -2.231258 10.284287 4.597693 -0.288771 23.010993 -3.064549 0.381938 -0.960926 -3.247064 0.036246 7.275150 -5.183847 -1.847589 -2.581541 -1.576057 -103.558143 -55.343733 135.578573 -20.488393 -23.403002 -41.440179 0.668712 9.379986 1.152738 11.866865 2.762982 -6.314407 101.283661 -55.108035 -142.722701 25.659365 -1.957846 40.950585 8.167685 -60.470896 1.412438 -108.342291 79.400427 -102.056365 4.384588 -13.399340 -15.026632 -0.002296 -0.008846 -0.001042 -21.666943 -59.905788 15.813118 68.905537 80.835495 64.915508 -9.736685 -5.604433 -1.696492 -0.000535 -0.001435 -0.000243
89.779559 126.604278 120.195914 176.692677 -21.598805 -3.918904 -2.397130 11.393177 5.031313 -0.226975 0.838399 0.408979 -0.370796 1.499105 0.683179 -2.226424 10.344061 4.590458 -0.295986 22.991572 -3.065963 0.381579 -1.001907 -3.243628 0.072008 7.211240 -5.164833 -1.760858 -2.692407 -1.672445 -103.588555 -55.338027 135.632153 -20.493530 -23.354559 -41.351243 0.678535 9.326073 1.158615 11.888910 2.798966 -6.308857 101.290584 -55.099133 -142.743301 25.658989 -1.956375 40.946465 8.121007 -60.482896 1.449919 -108.258900 79.404227 -101.980013 4.383733 -13.324830 -15.028595 -0.000535 -0.005195 -0.000243 -21.703204 -59.911911 15.838283 68.929357 80.843126 64.947882 -9.717896 -5.616052 -1.708315 0.000108 -0.000264 0.000049
89.781260 126.603368 120.193639 176.697714 -21.580393 -3.930611 -2.390275 11.397237 5.042304 -0.219141 0.879482 0.404667 -0.385169 1.453184 0.687278 -2.219993 10.382623 4.588907 -0.297589 22.943087 -3.060680 0.376615 -0.998559 -3.248495 0.103563 7.171789 -5.148580 -1.672615 -2.804316 -1.763777 -103.618241 -55.337688 135.676379 -20.494621 -23.305021 -41.269429 0.688653 9.318390 1.156436 11.896850 2.794026 -6.306621 101.286200 -55.095278 -142.722186 25.651763 -1.954183 40.938989 8.081044 -60.501352 1.476838 -108.222464 79.409231 -101.944287 4.371699 -13.270061 -15.023183 -0.000113 -0.001609 -0.000051 -21.742376 -59.924738 15.867688 68.958527 80.844058 64.982583 -9.707066 -5.623883 -1.712826 0.000418 0.000933 0.000190
89.781742 126.602997 120.189262 176.723593 -21.569457 -3.941447 -2.410164 11.395144 5.044823 -0.213309 0.903714 0.404716 -0.381284 1.455991 0.687527 -2.226703 10.380038 4.589181 -0.303349 22.942352 -3.066866 0.365516 -1.014940 -3.253447 0.137692 7.155114 -5.136737 -1.590959 -2.911760 -1.845926 -103.640091 -55.342887 135.711349 -20.490386 -23.257679 -41.196446 0.699911 9.327591 1.148581 11.898255 2.807146 -6.303053 101.310649 -55.093331 -142.740378 25.645367 -1.957615 40.952193 8.047822 -60.506517 1.478947 -108.291342 79.405416 -102.006594 4.385720 -13.259480 -15.026239 0.005126 0.000433 0.002327 -21.776759 -59.932844 15.875037 68.994228 80.846202 65.024780 -9.708642 -5.631386 -1.715512 0.002392 0.001926 0.001086
89.781278 126.602265 120.185040 176.737060 -21.555222 -3.940987 -2.413731 11.409495 5.042702 -0.213887 0.909016 0.403405 -0.381054 1.454619 0.689582 -2.231973 10.357619 4.589291 -0.321139 22.994863 -3.089070 0.358960 -1.057482 -3.255232 0.168478 7.153118 -5.127263 -1.506662 -3.008842 -1.921388 -103.657263 -55.348934 135.739708 -20.482159 -23.212451 -41.136226 0.705498 9.353472 1.139312 11.902911 2.838810 -6.302379 101.354899 -55.094678 -142.778978 25.638914 -1.959758 40.932394 8.044621 -60.516145 1.458031 -108.387380 79.405755 -102.093730 4.384797 -13.281078 -15.024168 0.006096 0.000069 0.002768 -21.799516 -59.947531 15.875820 69.058881 80.844412 65.090925 -9.709441 -5.640451 -1.714890 0.001991 0.000462 0.000904
89.780245 126.599716 120.184893 176.757004 -21.513556 -3.939282 -2.414872 11.435232 5.037572 -0.225602 0.858869 0.405121 -0.370998 1.512695 0.689120 -2.238502 10.328684 4.590904 -0.329617 22.981427 -3.096947 0.350623 -1.072319 -3.262269 0.238005 7.123033 -5.111873 -1.463519 -3.106695 -1.989405 -103.676656 -55.351980 135.764775 -20.475253 -23.170031 -41.093067 0.701848 9.373498 1.130596 11.907028 2.825199 -6.307906 101.387668 -55.100222 -142.791625 25.636942 -1.968307 40.973857 8.031004 -60.551867 1.428253 -108.473445 79.414306 -102.178427 4.384252 -13.314646 -15.028772 0.002624 -0.000224 0.001191 -21.841741 -59.987539 15.892166 69.108057 80.842114 65.137798 -9.706106 -5.649195 -1.714774 0.001109 0.001823 0.000503
89.779523 126.598180 120.181636 176.766896 -21.488756 -3.932839 -2.419512 11.435912 5.030669 -0.228019 0.851417 0.404357 -0.366338 1.531800 0.690429 -2.232047 10.381230 4.587945 -0.338141 22.915543 -3.098709 0.342802 -1.076876 -3.271745 0.262348 7.035272 -5.102399 -1.379734 -3.190634 -2.048792 -103.691654 -55.352406 135.777985 -20.471502 -23.135151 -41.065584 0.697600 9.314740 1.130277 11.905055 2.842414 -6.312540 101.408581 -55.105207 -142.793837 25.636642 -1.977323 41.018003 8.036542 -60.572953 1.401417 -108.544683 79.411751 -102.245239 4.380465 -13.345337 -15.033130 0.004378 -0.002196 0.001988 -21.855383 -60.010632 15.896544 69.126395 80.844525 65.155246 -9.748841 -5.656806 -1.712534 -0.003134 0.001950 -0.001423
89.779751 126.596352 120.178765 176.778069 -21.459828 -3.930641 -2.430106 11.415802 5.026441 -0.222029 0.877887 0.405664 -0.369745 1.515305 0.689734 -2.231913 10.383995 4.587048 -0.341077 22.902224 -3.099439 0.337214 -1.068610 -3.281527 0.282935 7.015445 -5.098422 -1.288260 -3.269808 -2.098429 -103.696070 -55.352330 135.776167 -20.467035 -23.111777 -41.053958 0.698116 9.323033 1.127342 11.900066 2.853885 -6.317271 101.441024 -55.104986 -142.823467 25.644253 -1.981017 41.067483 8.033724 -60.598873 1.380180 -108.597553 79.409649 -102.293159 4.384605 -13.361506 -15.041636 0.006743 -0.003302 0.003062 -21.874626 -60.038903 15.906932 69.147930 80.848893 65.176380 -9.752329 -5.660639 -1.710903 -0.003609 0.001581 -0.001639
89.780640 126.594435 120.175718 176.783234 -21.430834 -3.928560 -2.423942 11.421449 5.028054 -0.214068 0.916711 0.405343 -0.382541 1.459623 0.689708 -2.232232 10.386423 4.585511 -0.346280 22.914244 -3.108683 0.336991 -1.096531 -3.274928 0.288726 6.994550 -5.095327 -1.181356 -3.344130 -2.139668 -103.690315 -55.350736 135.765710 -20.461851 -23.100930 -41.059419 0.698308 9.316192 1.127338 11.895792 2.857693 -6.318934 101.439355 -55.105715 -142.811581 25.643049 -1.983529 41.079886 8.019478 -60.625581 1.371029 -108.615693 79.408463 -102.311263 4.391211 -13.384360 -15.046648 0.006952 -0.008723 0.003156 -21.888738 -60.067067 15.918554 69.161635 80.854563 65.188873 -9.718031 -5.661180 -1.711337 -0.000400 0.001377 -0.000181
89.781195 126.591776 120.174025 176.778144 -21.393094 -3.920290 -2.403468 11.456744 5.026309 -0.221355 0.879072 0.405306 -0.378461 1.461057 0.690039 -2.231362 10.388529 4.583512 -0.348529 22.923652 -3.118563 0.333785 -1.121990 -3.274442 0.322444 6.958280 -5.084412 -1.106139 -3.415907 -2.174310 -103.679292 -55.345192 135.748284 -20.461462 -23.097952 -41.072489 0.698162 9.289685 1.130155 11.888646 2.859490 -6.317816 101.403082 -55.106916 -142.760338 25.631113 -1.993379 41.076355 8.029151 -60.661985 1.344929 -108.601445 79.406092 -102.294026 4.403242 -13.388126 -15.051148 0.006570 -0.011897 0.002982 -21.894532 -60.101850 15.935944 69.134371 80.861211 65.162878 -9.740910 -5.664200 -1.709870 -0.001822 0.002256 -0.000827
89.782407 126.588564 120.173602 176.768410 -21.347996 -3.913456 -2.391449 11.446114 5.024287 -0.220431 0.879040 0.405193 -0.376288 1.463837 0.691901 -2.224754 10.390836 4.582471 -0.353778 22.899163 -3.117433 0.330898 -1.114326 -3.282402 0.371349 6.934172 -5.067486 -1.050825 -3.493082 -2.205727 -103.666384 -55.334142 135.722038 -20.468581 -23.096540 -41.082743 0.712563 9.295813 1.124611 11.877390 2.863048 -6.311821 101.399355 -55.094839 -142.767674 25.633247 -2.000222 41.096913 8.038084 -60.708871 1.323437 -108.584698 79.405304 -102.277974 4.415859 -13.372946 -15.050986 0.003997 -0.013925 0.001814 -21.910618 -60.146262 15.968127 69.133491 80.867165 65.160876 -9.733181 -5.661504 -1.711959 -0.000243 0.001770 -0.000110
89.783702 126.587085 120.168543 176.768960 -21.330119 -3.908311 -2.385559 11.460760 5.020240 -0.219488 0.878914 0.405072 -0.379848 1.465672 0.689394 -2.211437 10.391899 4.583320 -0.355802 22.893535 -3.120354 0.337256 -1.099939 -3.302619 0.367910 6.899560 -5.058604 -0.946890 -3.552397 -2.224707 -103.650158 -55.318904 135.690092 -20.480535 -23.096212 -41.092207 0.712214 9.274784 1.126204 11.875596 2.862810 -6.304309 101.340631 -55.090776 -142.708879 25.657938 -2.001742 41.120302 8.031425 -60.725885 1.313050 -108.578399 79.410474 -102.276924 4.394176 -13.309707 -15.041773 -0.000922 -0.006594 -0.000419 -21.909412 -60.164582 15.971330 69.120789 80.872708 65.147391 -9.741316 -5.660477 -1.709211 -0.002629 -0.000196 -0.001194
89.786265 126.585551 120.163917 176.768158 -21.311263 -3.908444 -2.375404 11.471917 5.024400 -0.223127 0.864063 0.404227 -0.373643 1.483111 0.688065 -2.183702 10.422798 4.581880 -0.361426 22.881483 -3.127955 0.325231 -1.134984 -3.291888 0.372952 6.841741 -5.044621 -0.877894 -3.607605 -2.233680 -103.631663 -55.303583 135.660607 -20.449553 -23.113663 -41.146248 0.686655 9.212594 1.135075 11.881278 2.869235 -6.298561 101.278328 -55.084143 -142.645265 25.647090 -2.006819 41.100800 8.027480 -60.740504 1.305948 -108.512917 79.395791 -102.209085 4.416100 -13.262359 -15.046493 -0.002399 -0.003044 -0.001089 -21.913291 -60.180750 15.982750 69.120982 80.876053 65.148416 -9.724544 -5.665341 -1.710948 -0.001588 -0.000066 -0.000721
89.786997 126.581829 120.164710 176.765389 -21.260627 -3.897718 -2.369096 11.442270 5.019777 -0.226352 0.857019 0.403192 -0.368742 1.498308 0.687948 -2.170134 10.423274 4.582139 -0.363021 22.875297 -3.130788 0.324104 -1.142256 -3.294553 0.450022 6.829990 -5.035275 -0.878720 -3.660598 -2.229779 -103.617650 -55.291073 135.638450 -20.480909 -23.109379 -41.136859 0.686721 9.197788 1.127592 11.874526 2.857441 -6.283526 101.211776 -55.079698 -142.586285 25.644713 -2.017234 41.098287 8.054641 -60.789865 1.263758 -108.481734 79.384443 -102.172657 4.434209 -13.210997 -15.050894 -0.003298 0.002447 -0.001497 -21.909811 -60.235791 15.995589 69.087682 80.891443 65.118285 -9.718290 -5.665074 -1.705308 -0.001455 -0.000255 -0.000661
